<mxfile host="app.diagrams.net" modified="2023-09-20T04:32:14.455Z" agent="Mozilla/5.0 (Windows NT 10.0; Win64; x64) AppleWebKit/537.36 (KHTML, like Gecko) Chrome/116.0.0.0 Safari/537.36" etag="IKCYJv40r2fN0Vh_7-jB" version="21.7.5" type="google">
  <diagram id="R2lEEEUBdFMjLlhIrx00" name="Page-1">
    <mxGraphModel grid="1" page="1" gridSize="10" guides="1" tooltips="1" connect="1" arrows="1" fold="1" pageScale="1" pageWidth="850" pageHeight="1100" math="0" shadow="0" extFonts="Permanent Marker^https://fonts.googleapis.com/css?family=Permanent+Marker">
      <root>
        <mxCell id="0" />
        <mxCell id="1" parent="0" />
        <mxCell id="t2RIw245jdAeksmFkmwB-13" style="edgeStyle=orthogonalEdgeStyle;rounded=0;orthogonalLoop=1;jettySize=auto;html=1;entryX=0;entryY=0.5;entryDx=0;entryDy=0;endArrow=none;endFill=0;" edge="1" parent="1" source="t2RIw245jdAeksmFkmwB-1" target="t2RIw245jdAeksmFkmwB-7">
          <mxGeometry relative="1" as="geometry" />
        </mxCell>
        <mxCell id="t2RIw245jdAeksmFkmwB-141" style="rounded=0;orthogonalLoop=1;jettySize=auto;html=1;exitX=0;exitY=0;exitDx=0;exitDy=0;entryX=1;entryY=1;entryDx=0;entryDy=0;" edge="1" parent="1" source="t2RIw245jdAeksmFkmwB-1" target="t2RIw245jdAeksmFkmwB-27">
          <mxGeometry relative="1" as="geometry" />
        </mxCell>
        <mxCell id="t2RIw245jdAeksmFkmwB-1" value="&lt;font style=&quot;font-size: 18px;&quot;&gt;Departamento&lt;/font&gt;" style="rounded=0;whiteSpace=wrap;html=1;" vertex="1" parent="1">
          <mxGeometry x="-270" y="410" width="120" height="60" as="geometry" />
        </mxCell>
        <mxCell id="t2RIw245jdAeksmFkmwB-12" style="edgeStyle=orthogonalEdgeStyle;rounded=0;orthogonalLoop=1;jettySize=auto;html=1;entryX=1;entryY=0.5;entryDx=0;entryDy=0;endArrow=none;endFill=0;exitX=0;exitY=0.5;exitDx=0;exitDy=0;" edge="1" parent="1" source="t2RIw245jdAeksmFkmwB-119" target="t2RIw245jdAeksmFkmwB-7">
          <mxGeometry relative="1" as="geometry">
            <mxPoint x="160" y="440" as="sourcePoint" />
          </mxGeometry>
        </mxCell>
        <mxCell id="t2RIw245jdAeksmFkmwB-115" style="edgeStyle=orthogonalEdgeStyle;rounded=0;orthogonalLoop=1;jettySize=auto;html=1;endArrow=none;endFill=0;shape=link;" edge="1" parent="1" source="t2RIw245jdAeksmFkmwB-2">
          <mxGeometry relative="1" as="geometry">
            <mxPoint x="470" y="290" as="targetPoint" />
          </mxGeometry>
        </mxCell>
        <mxCell id="t2RIw245jdAeksmFkmwB-2" value="&lt;font style=&quot;font-size: 18px;&quot;&gt;Alumno&lt;/font&gt;" style="rounded=0;whiteSpace=wrap;html=1;" vertex="1" parent="1">
          <mxGeometry x="410" y="190" width="120" height="60" as="geometry" />
        </mxCell>
        <mxCell id="t2RIw245jdAeksmFkmwB-3" value="&lt;font size=&quot;3&quot;&gt;Profesor&lt;/font&gt;" style="rounded=0;whiteSpace=wrap;html=1;" vertex="1" parent="1">
          <mxGeometry x="-270" y="830" width="120" height="60" as="geometry" />
        </mxCell>
        <mxCell id="t2RIw245jdAeksmFkmwB-4" value="&lt;font style=&quot;font-size: 18px;&quot;&gt;Proyecto&lt;/font&gt;" style="rounded=0;whiteSpace=wrap;html=1;" vertex="1" parent="1">
          <mxGeometry x="510" y="830" width="120" height="60" as="geometry" />
        </mxCell>
        <mxCell id="t2RIw245jdAeksmFkmwB-168" style="edgeStyle=orthogonalEdgeStyle;rounded=0;orthogonalLoop=1;jettySize=auto;html=1;exitX=0.5;exitY=0;exitDx=0;exitDy=0;entryX=0.5;entryY=1;entryDx=0;entryDy=0;endArrow=classic;endFill=1;" edge="1" parent="1" source="t2RIw245jdAeksmFkmwB-5" target="t2RIw245jdAeksmFkmwB-148">
          <mxGeometry relative="1" as="geometry" />
        </mxCell>
        <mxCell id="t2RIw245jdAeksmFkmwB-170" style="edgeStyle=orthogonalEdgeStyle;rounded=0;orthogonalLoop=1;jettySize=auto;html=1;" edge="1" parent="1" source="t2RIw245jdAeksmFkmwB-5">
          <mxGeometry relative="1" as="geometry">
            <mxPoint x="-240" y="830" as="targetPoint" />
            <Array as="points">
              <mxPoint x="-610" y="690" />
              <mxPoint x="-240" y="690" />
              <mxPoint x="-240" y="830" />
            </Array>
          </mxGeometry>
        </mxCell>
        <mxCell id="t2RIw245jdAeksmFkmwB-5" value="&lt;font style=&quot;font-size: 18px;&quot;&gt;Encargado&lt;/font&gt;" style="rhombus;whiteSpace=wrap;html=1;" vertex="1" parent="1">
          <mxGeometry x="-670" y="540" width="120" height="80" as="geometry" />
        </mxCell>
        <mxCell id="t2RIw245jdAeksmFkmwB-10" style="edgeStyle=orthogonalEdgeStyle;rounded=0;orthogonalLoop=1;jettySize=auto;html=1;endArrow=none;endFill=0;" edge="1" parent="1" source="t2RIw245jdAeksmFkmwB-6" target="t2RIw245jdAeksmFkmwB-4">
          <mxGeometry relative="1" as="geometry" />
        </mxCell>
        <mxCell id="t2RIw245jdAeksmFkmwB-129" style="edgeStyle=orthogonalEdgeStyle;rounded=0;orthogonalLoop=1;jettySize=auto;html=1;entryX=0.5;entryY=1;entryDx=0;entryDy=0;" edge="1" parent="1" source="t2RIw245jdAeksmFkmwB-6" target="t2RIw245jdAeksmFkmwB-120">
          <mxGeometry relative="1" as="geometry" />
        </mxCell>
        <mxCell id="t2RIw245jdAeksmFkmwB-6" value="&lt;font style=&quot;font-size: 18px;&quot;&gt;Participar&lt;/font&gt;" style="rhombus;whiteSpace=wrap;html=1;" vertex="1" parent="1">
          <mxGeometry x="510" y="570" width="120" height="80" as="geometry" />
        </mxCell>
        <mxCell id="t2RIw245jdAeksmFkmwB-7" value="&lt;font style=&quot;font-size: 18px;&quot;&gt;Estudiar&lt;/font&gt;" style="rhombus;whiteSpace=wrap;html=1;" vertex="1" parent="1">
          <mxGeometry x="-50" y="410" width="120" height="60" as="geometry" />
        </mxCell>
        <mxCell id="t2RIw245jdAeksmFkmwB-20" style="edgeStyle=orthogonalEdgeStyle;rounded=0;orthogonalLoop=1;jettySize=auto;html=1;exitX=1;exitY=0.5;exitDx=0;exitDy=0;entryX=0;entryY=0.25;entryDx=0;entryDy=0;endArrow=none;endFill=0;" edge="1" parent="1" source="t2RIw245jdAeksmFkmwB-18" target="t2RIw245jdAeksmFkmwB-4">
          <mxGeometry relative="1" as="geometry" />
        </mxCell>
        <mxCell id="t2RIw245jdAeksmFkmwB-18" value="&lt;font style=&quot;font-size: 18px;&quot;&gt;Administrar&lt;/font&gt;" style="rhombus;whiteSpace=wrap;html=1;" vertex="1" parent="1">
          <mxGeometry x="107" y="760" width="122" height="60" as="geometry" />
        </mxCell>
        <mxCell id="t2RIw245jdAeksmFkmwB-24" style="edgeStyle=orthogonalEdgeStyle;rounded=0;orthogonalLoop=1;jettySize=auto;html=1;entryX=0;entryY=0.75;entryDx=0;entryDy=0;endArrow=none;endFill=0;" edge="1" parent="1" source="t2RIw245jdAeksmFkmwB-22" target="t2RIw245jdAeksmFkmwB-4">
          <mxGeometry relative="1" as="geometry" />
        </mxCell>
        <mxCell id="t2RIw245jdAeksmFkmwB-29" style="edgeStyle=orthogonalEdgeStyle;rounded=0;orthogonalLoop=1;jettySize=auto;html=1;exitX=0;exitY=0.5;exitDx=0;exitDy=0;entryX=1;entryY=0.75;entryDx=0;entryDy=0;" edge="1" parent="1" source="t2RIw245jdAeksmFkmwB-22" target="t2RIw245jdAeksmFkmwB-3">
          <mxGeometry relative="1" as="geometry">
            <Array as="points">
              <mxPoint x="-20" y="930" />
              <mxPoint x="-20" y="875" />
            </Array>
          </mxGeometry>
        </mxCell>
        <mxCell id="t2RIw245jdAeksmFkmwB-22" value="&lt;span style=&quot;font-size: 18px;&quot;&gt;Trabajar&lt;/span&gt;" style="rhombus;whiteSpace=wrap;html=1;" vertex="1" parent="1">
          <mxGeometry x="107" y="900" width="122" height="60" as="geometry" />
        </mxCell>
        <mxCell id="t2RIw245jdAeksmFkmwB-44" style="rounded=0;orthogonalLoop=1;jettySize=auto;html=1;entryX=0;entryY=0.25;entryDx=0;entryDy=0;endArrow=none;endFill=0;" edge="1" parent="1" source="t2RIw245jdAeksmFkmwB-25" target="t2RIw245jdAeksmFkmwB-3">
          <mxGeometry relative="1" as="geometry" />
        </mxCell>
        <mxCell id="t2RIw245jdAeksmFkmwB-25" value="&lt;font style=&quot;font-size: 14px;&quot;&gt;&lt;u&gt;NumProf&lt;/u&gt;&lt;/font&gt;" style="ellipse;whiteSpace=wrap;html=1;" vertex="1" parent="1">
          <mxGeometry x="-470" y="765" width="120" height="50" as="geometry" />
        </mxCell>
        <mxCell id="t2RIw245jdAeksmFkmwB-48" style="rounded=0;orthogonalLoop=1;jettySize=auto;html=1;entryX=0.5;entryY=1;entryDx=0;entryDy=0;endArrow=none;endFill=0;" edge="1" parent="1" source="t2RIw245jdAeksmFkmwB-26" target="t2RIw245jdAeksmFkmwB-4">
          <mxGeometry relative="1" as="geometry" />
        </mxCell>
        <mxCell id="t2RIw245jdAeksmFkmwB-26" value="&lt;span style=&quot;font-size: 14px;&quot;&gt;&lt;u&gt;idProyecto&lt;br&gt;&lt;/u&gt;&lt;/span&gt;" style="ellipse;whiteSpace=wrap;html=1;" vertex="1" parent="1">
          <mxGeometry x="510" y="970" width="120" height="50" as="geometry" />
        </mxCell>
        <mxCell id="t2RIw245jdAeksmFkmwB-53" style="rounded=0;orthogonalLoop=1;jettySize=auto;html=1;endArrow=classic;endFill=1;exitX=1;exitY=0.5;exitDx=0;exitDy=0;shape=link;" edge="1" parent="1">
          <mxGeometry relative="1" as="geometry">
            <mxPoint x="-348.99999999999955" y="440.0000000000002" as="sourcePoint" />
            <mxPoint x="-280" y="440" as="targetPoint" />
          </mxGeometry>
        </mxCell>
        <mxCell id="t2RIw245jdAeksmFkmwB-27" value="&lt;font style=&quot;font-size: 14px;&quot;&gt;&lt;u&gt;NÃºmero&lt;/u&gt;&lt;/font&gt;" style="ellipse;whiteSpace=wrap;html=1;" vertex="1" parent="1">
          <mxGeometry x="-490" y="290" width="120" height="50" as="geometry" />
        </mxCell>
        <mxCell id="t2RIw245jdAeksmFkmwB-60" style="rounded=0;orthogonalLoop=1;jettySize=auto;html=1;entryX=0;entryY=0;entryDx=0;entryDy=0;endArrow=none;endFill=0;" edge="1" parent="1" source="t2RIw245jdAeksmFkmwB-28" target="t2RIw245jdAeksmFkmwB-2">
          <mxGeometry relative="1" as="geometry" />
        </mxCell>
        <mxCell id="t2RIw245jdAeksmFkmwB-28" value="&lt;font style=&quot;font-size: 14px;&quot;&gt;&lt;u&gt;NumCta&lt;br&gt;&lt;/u&gt;&lt;/font&gt;" style="ellipse;whiteSpace=wrap;html=1;" vertex="1" parent="1">
          <mxGeometry x="150" y="80" width="120" height="50" as="geometry" />
        </mxCell>
        <mxCell id="t2RIw245jdAeksmFkmwB-45" style="edgeStyle=orthogonalEdgeStyle;rounded=0;orthogonalLoop=1;jettySize=auto;html=1;entryX=0;entryY=0.5;entryDx=0;entryDy=0;endArrow=none;endFill=0;" edge="1" parent="1" source="t2RIw245jdAeksmFkmwB-30" target="t2RIw245jdAeksmFkmwB-3">
          <mxGeometry relative="1" as="geometry" />
        </mxCell>
        <mxCell id="t2RIw245jdAeksmFkmwB-30" value="&lt;font style=&quot;font-size: 14px;&quot;&gt;Nombre&lt;/font&gt;" style="ellipse;whiteSpace=wrap;html=1;" vertex="1" parent="1">
          <mxGeometry x="-470" y="835" width="120" height="50" as="geometry" />
        </mxCell>
        <mxCell id="t2RIw245jdAeksmFkmwB-46" style="rounded=0;orthogonalLoop=1;jettySize=auto;html=1;entryX=0;entryY=1;entryDx=0;entryDy=0;endArrow=none;endFill=0;" edge="1" parent="1" source="t2RIw245jdAeksmFkmwB-31" target="t2RIw245jdAeksmFkmwB-3">
          <mxGeometry relative="1" as="geometry" />
        </mxCell>
        <mxCell id="t2RIw245jdAeksmFkmwB-31" value="&lt;font style=&quot;font-size: 14px;&quot;&gt;Apellidos&lt;/font&gt;" style="ellipse;whiteSpace=wrap;html=1;" vertex="1" parent="1">
          <mxGeometry x="-450" y="940" width="120" height="50" as="geometry" />
        </mxCell>
        <mxCell id="t2RIw245jdAeksmFkmwB-47" style="rounded=0;orthogonalLoop=1;jettySize=auto;html=1;endArrow=none;endFill=0;entryX=0.5;entryY=1;entryDx=0;entryDy=0;" edge="1" parent="1" source="t2RIw245jdAeksmFkmwB-32" target="t2RIw245jdAeksmFkmwB-3">
          <mxGeometry relative="1" as="geometry">
            <mxPoint x="-250" y="900" as="targetPoint" />
          </mxGeometry>
        </mxCell>
        <mxCell id="t2RIw245jdAeksmFkmwB-32" value="&lt;font style=&quot;font-size: 14px;&quot;&gt;Titulo&lt;/font&gt;" style="ellipse;whiteSpace=wrap;html=1;" vertex="1" parent="1">
          <mxGeometry x="-270" y="960" width="120" height="50" as="geometry" />
        </mxCell>
        <mxCell id="t2RIw245jdAeksmFkmwB-52" style="rounded=0;orthogonalLoop=1;jettySize=auto;html=1;entryX=1;entryY=0;entryDx=0;entryDy=0;endArrow=none;endFill=0;" edge="1" parent="1" source="t2RIw245jdAeksmFkmwB-34" target="t2RIw245jdAeksmFkmwB-4">
          <mxGeometry relative="1" as="geometry" />
        </mxCell>
        <mxCell id="t2RIw245jdAeksmFkmwB-34" value="&lt;font style=&quot;font-size: 14px;&quot;&gt;&lt;u&gt;FechaInicio&lt;/u&gt;&lt;/font&gt;" style="ellipse;whiteSpace=wrap;html=1;" vertex="1" parent="1">
          <mxGeometry x="710" y="765" width="120" height="50" as="geometry" />
        </mxCell>
        <mxCell id="t2RIw245jdAeksmFkmwB-51" style="rounded=0;orthogonalLoop=1;jettySize=auto;html=1;entryX=1;entryY=0.5;entryDx=0;entryDy=0;endArrow=none;endFill=0;" edge="1" parent="1" source="t2RIw245jdAeksmFkmwB-35" target="t2RIw245jdAeksmFkmwB-4">
          <mxGeometry relative="1" as="geometry" />
        </mxCell>
        <mxCell id="t2RIw245jdAeksmFkmwB-35" value="&lt;span style=&quot;font-size: 14px;&quot;&gt;Presupuesto&lt;/span&gt;" style="ellipse;whiteSpace=wrap;html=1;" vertex="1" parent="1">
          <mxGeometry x="710" y="835" width="120" height="50" as="geometry" />
        </mxCell>
        <mxCell id="t2RIw245jdAeksmFkmwB-49" style="rounded=0;orthogonalLoop=1;jettySize=auto;html=1;entryX=1;entryY=1;entryDx=0;entryDy=0;endArrow=none;endFill=0;" edge="1" parent="1" source="t2RIw245jdAeksmFkmwB-36" target="t2RIw245jdAeksmFkmwB-4">
          <mxGeometry relative="1" as="geometry" />
        </mxCell>
        <mxCell id="t2RIw245jdAeksmFkmwB-36" value="&lt;font style=&quot;font-size: 14px;&quot;&gt;FechaFin&lt;/font&gt;" style="ellipse;whiteSpace=wrap;html=1;" vertex="1" parent="1">
          <mxGeometry x="710" y="910" width="120" height="50" as="geometry" />
        </mxCell>
        <mxCell id="t2RIw245jdAeksmFkmwB-62" style="rounded=0;orthogonalLoop=1;jettySize=auto;html=1;entryX=0.75;entryY=0;entryDx=0;entryDy=0;endArrow=none;endFill=0;" edge="1" parent="1" source="t2RIw245jdAeksmFkmwB-37" target="t2RIw245jdAeksmFkmwB-1">
          <mxGeometry relative="1" as="geometry" />
        </mxCell>
        <mxCell id="t2RIw245jdAeksmFkmwB-37" value="&lt;font style=&quot;font-size: 14px;&quot;&gt;Oficina&lt;/font&gt;" style="ellipse;whiteSpace=wrap;html=1;" vertex="1" parent="1">
          <mxGeometry x="-190" y="280" width="120" height="50" as="geometry" />
        </mxCell>
        <mxCell id="t2RIw245jdAeksmFkmwB-61" style="rounded=0;orthogonalLoop=1;jettySize=auto;html=1;entryX=0.25;entryY=0;entryDx=0;entryDy=0;endArrow=none;endFill=0;" edge="1" parent="1" source="t2RIw245jdAeksmFkmwB-38" target="t2RIw245jdAeksmFkmwB-1">
          <mxGeometry relative="1" as="geometry" />
        </mxCell>
        <mxCell id="t2RIw245jdAeksmFkmwB-38" value="&lt;font style=&quot;font-size: 14px;&quot;&gt;Titulo&lt;/font&gt;" style="ellipse;whiteSpace=wrap;html=1;" vertex="1" parent="1">
          <mxGeometry x="-350" y="280" width="120" height="50" as="geometry" />
        </mxCell>
        <mxCell id="t2RIw245jdAeksmFkmwB-59" style="rounded=0;orthogonalLoop=1;jettySize=auto;html=1;entryX=0.25;entryY=0;entryDx=0;entryDy=0;endArrow=none;endFill=0;" edge="1" parent="1" source="t2RIw245jdAeksmFkmwB-39" target="t2RIw245jdAeksmFkmwB-2">
          <mxGeometry relative="1" as="geometry" />
        </mxCell>
        <mxCell id="t2RIw245jdAeksmFkmwB-39" value="&lt;font style=&quot;font-size: 14px;&quot;&gt;Nombre&lt;/font&gt;" style="ellipse;whiteSpace=wrap;html=1;" vertex="1" parent="1">
          <mxGeometry x="310" y="80" width="120" height="50" as="geometry" />
        </mxCell>
        <mxCell id="t2RIw245jdAeksmFkmwB-58" style="rounded=0;orthogonalLoop=1;jettySize=auto;html=1;entryX=1;entryY=0;entryDx=0;entryDy=0;endArrow=none;endFill=0;" edge="1" parent="1" source="t2RIw245jdAeksmFkmwB-40" target="t2RIw245jdAeksmFkmwB-2">
          <mxGeometry relative="1" as="geometry" />
        </mxCell>
        <mxCell id="t2RIw245jdAeksmFkmwB-40" value="&lt;font style=&quot;font-size: 14px;&quot;&gt;TelÃ©fono&lt;/font&gt;" style="ellipse;whiteSpace=wrap;html=1;" vertex="1" parent="1">
          <mxGeometry x="630" y="80" width="120" height="50" as="geometry" />
        </mxCell>
        <mxCell id="t2RIw245jdAeksmFkmwB-42" value="" style="endArrow=none;html=1;rounded=0;entryX=0;entryY=0.5;entryDx=0;entryDy=0;edgeStyle=orthogonalEdgeStyle;exitX=1;exitY=0.25;exitDx=0;exitDy=0;" edge="1" parent="1" source="t2RIw245jdAeksmFkmwB-3" target="t2RIw245jdAeksmFkmwB-18">
          <mxGeometry width="50" height="50" relative="1" as="geometry">
            <mxPoint x="-150" y="850" as="sourcePoint" />
            <mxPoint x="-100" y="800" as="targetPoint" />
          </mxGeometry>
        </mxCell>
        <mxCell id="t2RIw245jdAeksmFkmwB-56" style="rounded=0;orthogonalLoop=1;jettySize=auto;html=1;entryX=0.75;entryY=0;entryDx=0;entryDy=0;endArrow=none;endFill=0;" edge="1" parent="1" source="t2RIw245jdAeksmFkmwB-55" target="t2RIw245jdAeksmFkmwB-2">
          <mxGeometry relative="1" as="geometry" />
        </mxCell>
        <mxCell id="t2RIw245jdAeksmFkmwB-55" value="&lt;font style=&quot;font-size: 14px;&quot;&gt;Apellidos&lt;/font&gt;" style="ellipse;whiteSpace=wrap;html=1;" vertex="1" parent="1">
          <mxGeometry x="470" y="80" width="120" height="50" as="geometry" />
        </mxCell>
        <mxCell id="t2RIw245jdAeksmFkmwB-121" style="edgeStyle=orthogonalEdgeStyle;rounded=0;orthogonalLoop=1;jettySize=auto;html=1;exitX=0;exitY=0.75;exitDx=0;exitDy=0;endArrow=none;endFill=0;" edge="1" parent="1" source="t2RIw245jdAeksmFkmwB-118" target="t2RIw245jdAeksmFkmwB-120">
          <mxGeometry relative="1" as="geometry" />
        </mxCell>
        <mxCell id="t2RIw245jdAeksmFkmwB-131" style="edgeStyle=orthogonalEdgeStyle;rounded=0;orthogonalLoop=1;jettySize=auto;html=1;exitX=0;exitY=0.25;exitDx=0;exitDy=0;endArrow=none;endFill=0;" edge="1" parent="1" source="t2RIw245jdAeksmFkmwB-118" target="t2RIw245jdAeksmFkmwB-119">
          <mxGeometry relative="1" as="geometry" />
        </mxCell>
        <mxCell id="t2RIw245jdAeksmFkmwB-118" value="d" style="triangle;whiteSpace=wrap;html=1;direction=north;" vertex="1" parent="1">
          <mxGeometry x="430" y="290" width="80" height="60" as="geometry" />
        </mxCell>
        <mxCell id="t2RIw245jdAeksmFkmwB-119" value="&lt;font style=&quot;font-size: 18px;&quot;&gt;NoGraduado&lt;/font&gt;" style="rounded=0;whiteSpace=wrap;html=1;" vertex="1" parent="1">
          <mxGeometry x="160" y="410" width="120" height="60" as="geometry" />
        </mxCell>
        <mxCell id="t2RIw245jdAeksmFkmwB-120" value="&lt;font style=&quot;font-size: 18px;&quot;&gt;Graduado&lt;/font&gt;" style="rounded=0;whiteSpace=wrap;html=1;" vertex="1" parent="1">
          <mxGeometry x="510" y="410" width="120" height="60" as="geometry" />
        </mxCell>
        <mxCell id="t2RIw245jdAeksmFkmwB-130" style="rounded=0;orthogonalLoop=1;jettySize=auto;html=1;exitX=1;exitY=1;exitDx=0;exitDy=0;entryX=0;entryY=0;entryDx=0;entryDy=0;endArrow=none;endFill=0;" edge="1" parent="1" source="t2RIw245jdAeksmFkmwB-124" target="t2RIw245jdAeksmFkmwB-119">
          <mxGeometry relative="1" as="geometry" />
        </mxCell>
        <mxCell id="t2RIw245jdAeksmFkmwB-124" value="&lt;font style=&quot;font-size: 14px;&quot;&gt;NumExpediente&lt;br&gt;&lt;/font&gt;" style="ellipse;whiteSpace=wrap;html=1;" vertex="1" parent="1">
          <mxGeometry y="300" width="120" height="50" as="geometry" />
        </mxCell>
        <mxCell id="t2RIw245jdAeksmFkmwB-127" style="rounded=0;orthogonalLoop=1;jettySize=auto;html=1;entryX=1;entryY=0;entryDx=0;entryDy=0;endArrow=none;endFill=0;" edge="1" parent="1" source="t2RIw245jdAeksmFkmwB-128">
          <mxGeometry relative="1" as="geometry">
            <mxPoint x="630" y="410" as="targetPoint" />
          </mxGeometry>
        </mxCell>
        <mxCell id="t2RIw245jdAeksmFkmwB-128" value="&lt;span style=&quot;font-size: 14px;&quot;&gt;TÃ­tulo&lt;/span&gt;" style="ellipse;whiteSpace=wrap;html=1;" vertex="1" parent="1">
          <mxGeometry x="630" y="300" width="120" height="50" as="geometry" />
        </mxCell>
        <mxCell id="t2RIw245jdAeksmFkmwB-133" style="edgeStyle=orthogonalEdgeStyle;rounded=0;orthogonalLoop=1;jettySize=auto;html=1;exitX=0;exitY=0.5;exitDx=0;exitDy=0;entryX=1;entryY=0.5;entryDx=0;entryDy=0;endArrow=none;endFill=0;" edge="1" parent="1" source="t2RIw245jdAeksmFkmwB-132" target="t2RIw245jdAeksmFkmwB-119">
          <mxGeometry relative="1" as="geometry" />
        </mxCell>
        <mxCell id="t2RIw245jdAeksmFkmwB-134" style="edgeStyle=orthogonalEdgeStyle;rounded=0;orthogonalLoop=1;jettySize=auto;html=1;exitX=1;exitY=0.5;exitDx=0;exitDy=0;entryX=0;entryY=0.5;entryDx=0;entryDy=0;shape=link;" edge="1" parent="1" source="t2RIw245jdAeksmFkmwB-132" target="t2RIw245jdAeksmFkmwB-120">
          <mxGeometry relative="1" as="geometry" />
        </mxCell>
        <mxCell id="t2RIw245jdAeksmFkmwB-132" value="&lt;span style=&quot;font-size: 18px;&quot;&gt;Tutorar&lt;/span&gt;" style="rhombus;whiteSpace=wrap;html=1;" vertex="1" parent="1">
          <mxGeometry x="340" y="410" width="120" height="60" as="geometry" />
        </mxCell>
        <mxCell id="t2RIw245jdAeksmFkmwB-162" style="edgeStyle=orthogonalEdgeStyle;rounded=0;orthogonalLoop=1;jettySize=auto;html=1;exitX=0;exitY=0.5;exitDx=0;exitDy=0;" edge="1" parent="1" source="t2RIw245jdAeksmFkmwB-148">
          <mxGeometry relative="1" as="geometry">
            <mxPoint x="-760" y="440" as="targetPoint" />
          </mxGeometry>
        </mxCell>
        <mxCell id="t2RIw245jdAeksmFkmwB-164" style="edgeStyle=orthogonalEdgeStyle;rounded=0;orthogonalLoop=1;jettySize=auto;html=1;entryX=0.5;entryY=1;entryDx=0;entryDy=0;endArrow=none;endFill=0;" edge="1" parent="1" source="t2RIw245jdAeksmFkmwB-148" target="t2RIw245jdAeksmFkmwB-165">
          <mxGeometry relative="1" as="geometry">
            <mxPoint x="-610" y="360" as="targetPoint" />
          </mxGeometry>
        </mxCell>
        <mxCell id="t2RIw245jdAeksmFkmwB-148" value="&lt;font style=&quot;font-size: 18px;&quot;&gt;Cargo&lt;/font&gt;" style="shape=ext;margin=3;double=1;whiteSpace=wrap;html=1;align=center;" vertex="1" parent="1">
          <mxGeometry x="-670" y="410" width="120" height="60" as="geometry" />
        </mxCell>
        <mxCell id="t2RIw245jdAeksmFkmwB-160" style="edgeStyle=orthogonalEdgeStyle;rounded=0;orthogonalLoop=1;jettySize=auto;html=1;shape=link;entryX=1;entryY=0.5;entryDx=0;entryDy=0;" edge="1" parent="1" source="t2RIw245jdAeksmFkmwB-151" target="t2RIw245jdAeksmFkmwB-148">
          <mxGeometry relative="1" as="geometry">
            <mxPoint x="-540" y="440" as="targetPoint" />
          </mxGeometry>
        </mxCell>
        <mxCell id="t2RIw245jdAeksmFkmwB-171" style="edgeStyle=orthogonalEdgeStyle;rounded=0;orthogonalLoop=1;jettySize=auto;html=1;strokeWidth=3;" edge="1" parent="1">
          <mxGeometry relative="1" as="geometry">
            <mxPoint x="-270" y="440" as="targetPoint" />
            <mxPoint x="-280" y="440" as="sourcePoint" />
          </mxGeometry>
        </mxCell>
        <mxCell id="t2RIw245jdAeksmFkmwB-151" value="&lt;span style=&quot;font-size: 18px;&quot;&gt;Tener&lt;/span&gt;" style="shape=rhombus;double=1;perimeter=rhombusPerimeter;whiteSpace=wrap;html=1;align=center;" vertex="1" parent="1">
          <mxGeometry x="-470" y="400" width="120" height="80" as="geometry" />
        </mxCell>
        <mxCell id="t2RIw245jdAeksmFkmwB-163" value="&lt;font style=&quot;font-size: 14px;&quot;&gt;&lt;u&gt;NombreCargo&lt;br&gt;&lt;/u&gt;&lt;/font&gt;" style="ellipse;whiteSpace=wrap;html=1;" vertex="1" parent="1">
          <mxGeometry x="-840" y="415" width="120" height="50" as="geometry" />
        </mxCell>
        <mxCell id="t2RIw245jdAeksmFkmwB-165" value="&lt;span style=&quot;font-size: 14px;&quot;&gt;CargaHoraria&lt;/span&gt;" style="ellipse;whiteSpace=wrap;html=1;" vertex="1" parent="1">
          <mxGeometry x="-670" y="295" width="120" height="50" as="geometry" />
        </mxCell>
        <mxCell id="t2RIw245jdAeksmFkmwB-174" style="edgeStyle=orthogonalEdgeStyle;rounded=0;orthogonalLoop=1;jettySize=auto;html=1;entryX=0.5;entryY=1;entryDx=0;entryDy=0;endArrow=none;endFill=0;" edge="1" parent="1" source="t2RIw245jdAeksmFkmwB-172" target="t2RIw245jdAeksmFkmwB-1">
          <mxGeometry relative="1" as="geometry" />
        </mxCell>
        <mxCell id="t2RIw245jdAeksmFkmwB-175" style="edgeStyle=orthogonalEdgeStyle;rounded=0;orthogonalLoop=1;jettySize=auto;html=1;entryX=0.5;entryY=0;entryDx=0;entryDy=0;endArrow=none;endFill=0;" edge="1" parent="1" source="t2RIw245jdAeksmFkmwB-172" target="t2RIw245jdAeksmFkmwB-3">
          <mxGeometry relative="1" as="geometry" />
        </mxCell>
        <mxCell id="t2RIw245jdAeksmFkmwB-172" value="&lt;font style=&quot;font-size: 18px;&quot;&gt;Trabajar&lt;/font&gt;" style="rhombus;whiteSpace=wrap;html=1;" vertex="1" parent="1">
          <mxGeometry x="-270" y="550" width="120" height="80" as="geometry" />
        </mxCell>
        <mxCell id="t2RIw245jdAeksmFkmwB-179" style="edgeStyle=orthogonalEdgeStyle;rounded=0;orthogonalLoop=1;jettySize=auto;html=1;entryX=0.25;entryY=0;entryDx=0;entryDy=0;endArrow=none;endFill=0;" edge="1" parent="1" source="t2RIw245jdAeksmFkmwB-177" target="t2RIw245jdAeksmFkmwB-4">
          <mxGeometry relative="1" as="geometry" />
        </mxCell>
        <mxCell id="t2RIw245jdAeksmFkmwB-180" style="edgeStyle=orthogonalEdgeStyle;rounded=0;orthogonalLoop=1;jettySize=auto;html=1;entryX=0.75;entryY=0;entryDx=0;entryDy=0;endArrow=none;endFill=0;shape=link;" edge="1" parent="1" source="t2RIw245jdAeksmFkmwB-177" target="t2RIw245jdAeksmFkmwB-3">
          <mxGeometry relative="1" as="geometry" />
        </mxCell>
        <mxCell id="t2RIw245jdAeksmFkmwB-177" value="&lt;font style=&quot;font-size: 18px;&quot;&gt;Supervisar&lt;/font&gt;" style="rhombus;whiteSpace=wrap;html=1;" vertex="1" parent="1">
          <mxGeometry x="107" y="660" width="122" height="60" as="geometry" />
        </mxCell>
      </root>
    </mxGraphModel>
  </diagram>
</mxfile>
